<svg width="50" height="50" viewBox="0 0 50 50" fill="none" xmlns="http://www.w3.org/2000/svg">
<path d="M25 25C22.7083 25 20.7465 24.184 19.1146 22.5521C17.4826 20.9202 16.6666 18.9583 16.6666 16.6667C16.6666 14.375 17.4826 12.4132 19.1146 10.7813C20.7465 9.14932 22.7083 8.33334 25 8.33334C27.2916 8.33334 29.2535 9.14932 30.8854 10.7813C32.5173 12.4132 33.3333 14.375 33.3333 16.6667C33.3333 18.9583 32.5173 20.9202 30.8854 22.5521C29.2535 24.184 27.2916 25 25 25ZM8.33331 41.6667V35.8333C8.33331 34.6528 8.63713 33.5677 9.24477 32.5781C9.85241 31.5886 10.6597 30.8333 11.6666 30.3125C13.8194 29.2361 16.0069 28.4288 18.2291 27.8906C20.4514 27.3524 22.7083 27.0833 25 27.0833C27.2916 27.0833 29.5486 27.3524 31.7708 27.8906C33.993 28.4288 36.1805 29.2361 38.3333 30.3125C39.3403 30.8333 40.1476 31.5886 40.7552 32.5781C41.3628 33.5677 41.6666 34.6528 41.6666 35.8333V41.6667H8.33331ZM12.5 37.5H37.5V35.8333C37.5 35.4514 37.4045 35.1042 37.2135 34.7917C37.0226 34.4792 36.7708 34.2361 36.4583 34.0625C34.5833 33.125 32.691 32.4219 30.7812 31.9531C28.8715 31.4844 26.9444 31.25 25 31.25C23.0555 31.25 21.1285 31.4844 19.2187 31.9531C17.309 32.4219 15.4166 33.125 13.5416 34.0625C13.2291 34.2361 12.9774 34.4792 12.7864 34.7917C12.5955 35.1042 12.5 35.4514 12.5 35.8333V37.5ZM25 20.8333C26.1458 20.8333 27.1267 20.4254 27.9427 19.6094C28.7587 18.7934 29.1666 17.8125 29.1666 16.6667C29.1666 15.5208 28.7587 14.5399 27.9427 13.724C27.1267 12.908 26.1458 12.5 25 12.5C23.8541 12.5 22.8732 12.908 22.0573 13.724C21.2413 14.5399 20.8333 15.5208 20.8333 16.6667C20.8333 17.8125 21.2413 18.7934 22.0573 19.6094C22.8732 20.4254 23.8541 20.8333 25 20.8333Z" fill="white"/>
</svg>
